<svg xmlns="http://www.w3.org/2000/svg" xmlns:xlink="http://www.w3.org/1999/xlink" viewBox="0 0 125.53 42.99"><defs><style>.cls-1{fill:none;}.cls-2{fill:#31a7d4;}.cls-3{clip-path:url(#clip-path);}.cls-4{fill:url(#linear-gradient);}.cls-5{clip-path:url(#clip-path-2);}.cls-6{fill:url(#linear-gradient-2);}.cls-7{clip-path:url(#clip-path-3);}.cls-8{fill:url(#linear-gradient-3);}</style><clipPath id="clip-path"><path class="cls-1" d="M0,11.28A28.05,28.05,0,0,0,8,31.75a28.05,28.05,0,0,0,20.47,8A31.37,31.37,0,0,0,28,33.81a38.7,38.7,0,0,1-13.35,2.65,38,38,0,0,1,4.92-18.1A28.12,28.12,0,0,0,.39,11.27H0"></path></clipPath><linearGradient id="linear-gradient" x1="-238.26" y1="424.57" x2="-237.26" y2="424.57" gradientTransform="matrix(-20.6, -6.65, -6.65, 20.6, -2060.44, -10306.19)" gradientUnits="userSpaceOnUse"><stop offset="0" stop-color="#31a7d4"></stop><stop offset="1" stop-color="#bdddf1"></stop></linearGradient><clipPath id="clip-path-2"><path class="cls-1" d="M25.35,10.74a36.17,36.17,0,0,0-5.82,7.62c.32.29.63.58.94.89A27.14,27.14,0,0,1,28,33.81a36.31,36.31,0,0,0,12.37-8.09A37.16,37.16,0,0,0,51.07,0,37.12,37.12,0,0,0,25.35,10.74"></path></clipPath><linearGradient id="linear-gradient-2" x1="-226.67" y1="457.59" x2="-225.67" y2="457.59" gradientTransform="matrix(31.53, 0, 0, -31.53, 7167.25, 14446.57)" gradientUnits="userSpaceOnUse"><stop offset="0" stop-color="#99bc39"></stop><stop offset="1" stop-color="#e3ebc6"></stop></linearGradient><clipPath id="clip-path-3"><path class="cls-1" d="M14.61,36.46A38.7,38.7,0,0,0,28,33.81a27.14,27.14,0,0,0-7.49-14.56c-.31-.31-.62-.6-.94-.89a38,38,0,0,0-4.92,18.1"></path></clipPath><linearGradient id="linear-gradient-3" x1="-216.85" y1="474.75" x2="-215.85" y2="474.75" gradientTransform="matrix(13.35, 0, 0, -13.35, 2910.04, 6366.3)" gradientUnits="userSpaceOnUse"><stop offset="0" stop-color="#148d9b"></stop><stop offset="1" stop-color="#9bc3cb"></stop></linearGradient></defs><g id="Layer_2"><g id="Layer_1-2"><path class="cls-2" d="M60.42,25.85H57.11L53.33,15.12A4.33,4.33,0,0,1,55,14.83,2.37,2.37,0,0,1,56,15a1.5,1.5,0,0,1,.66.59A5.45,5.45,0,0,1,57.15,17l1.65,5.9,1.74-6A5.1,5.1,0,0,1,61,15.66a1.73,1.73,0,0,1,.63-.63,1.94,1.94,0,0,1,1-.2,3.79,3.79,0,0,1,1.55.29Z"></path><path class="cls-2" d="M68.3,25.88a3.56,3.56,0,0,1-1.1.09,2.14,2.14,0,0,1-1.55-.46,1.93,1.93,0,0,1-.47-1.44V14.92a2.13,2.13,0,0,1,.42-.06l.64,0c1.37,0,2.06.6,2.06,1.8Zm0-14.62a1.56,1.56,0,0,1-.48,1.17,1.61,1.61,0,0,1-1.19.47,1.59,1.59,0,0,1-1.2-.47A1.55,1.55,0,0,1,65,11.26a1.64,1.64,0,0,1,1.67-1.68,1.63,1.63,0,0,1,1.19.49,1.61,1.61,0,0,1,.48,1.19"></path><path class="cls-2" d="M70.81,24.09a6.3,6.3,0,0,1-.25-2V11.51l.34,0a6.58,6.58,0,0,1,.71,0c1.38,0,2.06.61,2.06,1.83v1.6h3.21v2.33H73.67v4.9c0,1.07.44,1.6,1.31,1.6a2.27,2.27,0,0,0,.94-.23,2.86,2.86,0,0,0,.82-.57,6.6,6.6,0,0,1,.56.94,1.55,1.55,0,0,1,.15.62,1.08,1.08,0,0,1-.48.82,3.54,3.54,0,0,1-1.23.61,5.86,5.86,0,0,1-1.61.21c-1.72,0-2.83-.66-3.32-2"></path><path class="cls-2" d="M84.66,20.43h-.32a1.66,1.66,0,0,0-.32,0,4.92,4.92,0,0,0-2.38.6,1.58,1.58,0,0,0-.74,1.39,1.54,1.54,0,0,0,.41,1.13,1.69,1.69,0,0,0,1.19.4,2.91,2.91,0,0,0,1.48-.4c.45-.27.68-.54.68-.81Zm2.92,2.66a5.13,5.13,0,0,0,.53,2.63,4.55,4.55,0,0,1-1.51.3,2.18,2.18,0,0,1-1.21-.3,1.44,1.44,0,0,1-.57-.94,3.84,3.84,0,0,1-1.43.94,5.56,5.56,0,0,1-1.92.32A3.63,3.63,0,0,1,79,25.16a3.19,3.19,0,0,1-1-2.49q0-3.54,5.61-3.84l1,0V18.4a1.49,1.49,0,0,0-.46-1.23,2.41,2.41,0,0,0-1.53-.38A5,5,0,0,0,81.2,17a9.2,9.2,0,0,0-1.83.85,3,3,0,0,1-.5-.83,2,2,0,0,1-.21-.73c0-.29.23-.57.68-.83A5.67,5.67,0,0,1,81,14.83a8.9,8.9,0,0,1,2.08-.23,4.9,4.9,0,0,1,3.43,1,4.22,4.22,0,0,1,1,3.2Z"></path><path class="cls-2" d="M54.22,33.53a3.22,3.22,0,0,1,1.09-.71,3.92,3.92,0,0,1,1.44-.25,2.51,2.51,0,0,1,1.5.41A1.73,1.73,0,0,1,59,34.1a5.83,5.83,0,0,1,.12,1.34V39.7h-.87V35.44a3.67,3.67,0,0,0-.13-1.13c-.19-.64-.74-1-1.64-1a3.31,3.31,0,0,0-1.08.18,2.75,2.75,0,0,0-.84.44.69.69,0,0,0-.32.48V39.7h-.85V29.06a.44.44,0,0,1,.15,0,.66.66,0,0,1,.51.19.73.73,0,0,1,.19.56Z"></path><path class="cls-2" d="M65.79,35.72c0-1.62-.66-2.43-2-2.43a1.94,1.94,0,0,0-1.53.65,2.7,2.7,0,0,0-.6,1.78Zm.67,3.13c0,.15-.13.31-.39.5a2.84,2.84,0,0,1-.91.43,4,4,0,0,1-1.1.15,3.12,3.12,0,0,1-2.46-1,4.14,4.14,0,0,1-.84-2.8,4.4,4.4,0,0,1,.39-1.93A2.88,2.88,0,0,1,62.27,33a3.08,3.08,0,0,1,1.63-.43,2.53,2.53,0,0,1,2,.82,3.21,3.21,0,0,1,.72,2.21,7,7,0,0,1,0,.77H61.67a3.32,3.32,0,0,0,.65,2.11,2.17,2.17,0,0,0,1.77.73A3,3,0,0,0,65.32,39a2,2,0,0,0,.81-.64,1.13,1.13,0,0,1,.33.53"></path><path class="cls-2" d="M72.26,36h-.39c-2.23,0-3.35.6-3.35,1.82a1.31,1.31,0,0,0,.37,1,1.49,1.49,0,0,0,1.09.36,2.9,2.9,0,0,0,1.09-.21,3.13,3.13,0,0,0,.85-.5c.23-.2.34-.36.34-.49Zm1.68,3.74a2.28,2.28,0,0,1-.54.08,1.21,1.21,0,0,1-.81-.25,1,1,0,0,1-.33-.7,3.32,3.32,0,0,1-2.43,1,2.38,2.38,0,0,1-1.62-.53,1.92,1.92,0,0,1-.59-1.51,2,2,0,0,1,.48-1.35,3.14,3.14,0,0,1,1.4-.84,7,7,0,0,1,2.07-.29h.35l.33,0V35a1.73,1.73,0,0,0-.42-1.29,1.89,1.89,0,0,0-1.33-.39,3.88,3.88,0,0,0-1.14.16,2.91,2.91,0,0,0-.93.47H68.3a1,1,0,0,1-.21-.5c0-.13.13-.26.39-.4a3.07,3.07,0,0,1,1-.34,5,5,0,0,1,1.14-.13,2.68,2.68,0,0,1,1.94.59,2.66,2.66,0,0,1,.6,2v3a3.17,3.17,0,0,0,.06.68.73.73,0,0,0,.21.4.94.94,0,0,0,.55.16Z"></path><path class="cls-2" d="M75.14,29.05h.16a.75.75,0,0,1,.52.19.8.8,0,0,1,.2.58v8.51a2.41,2.41,0,0,0,.06.6.58.58,0,0,0,.23.33,1,1,0,0,0,.47.14v.31a2.37,2.37,0,0,1-.61.08,1.12,1.12,0,0,1-.59-.14.86.86,0,0,1-.33-.45,3.13,3.13,0,0,1-.11-1Z"></path><path class="cls-2" d="M81.26,32.69v.69H78.91v4.4c0,.95.37,1.43,1.1,1.43a1.59,1.59,0,0,0,1-.33,2.15,2.15,0,0,0,.35-.33c.23.23.34.4.34.51s-.09.23-.28.38a1.92,1.92,0,0,1-.66.36,2.28,2.28,0,0,1-.78.13,1.61,1.61,0,0,1-1.73-1,4.13,4.13,0,0,1-.15-1.25V30.54h.13a.72.72,0,0,1,.53.19.77.77,0,0,1,.19.57v1.4Z"></path><path class="cls-2" d="M83.57,33.53a3.12,3.12,0,0,1,1.09-.71,3.87,3.87,0,0,1,1.43-.25A2.54,2.54,0,0,1,87.6,33a1.73,1.73,0,0,1,.73,1.12,5.83,5.83,0,0,1,.12,1.34V39.7h-.87V35.44a3.67,3.67,0,0,0-.13-1.13c-.2-.64-.74-1-1.64-1a3.31,3.31,0,0,0-1.08.18,2.75,2.75,0,0,0-.84.44.69.69,0,0,0-.32.48V39.7h-.86V29.06a.44.44,0,0,1,.15,0,.68.68,0,0,1,.52.19.73.73,0,0,1,.19.56Z"></path><path class="cls-2" d="M93,36a3.59,3.59,0,0,0,.59,2.19,2,2,0,0,0,1.68.77,2.42,2.42,0,0,0,.94-.17,1.82,1.82,0,0,0,.69-.44.7.7,0,0,0,.26-.51V34a2.3,2.3,0,0,0-1.83-.87,2.08,2.08,0,0,0-1.73.73A3.25,3.25,0,0,0,93,36m5,3.19a8.16,8.16,0,0,1-.15,1.73C97.54,42.31,96.49,43,94.71,43a4.61,4.61,0,0,1-1.31-.17,2.32,2.32,0,0,1-.92-.44.6.6,0,0,1-.23-.41.45.45,0,0,1,.1-.25,1.54,1.54,0,0,1,.25-.27,1.76,1.76,0,0,0,.52.42,2.83,2.83,0,0,0,1.58.4q2.13,0,2.37-1.71a9.88,9.88,0,0,0,.09-1.44v-.26a2.64,2.64,0,0,1-2,.86,2.81,2.81,0,0,1-2.23-.95,3.88,3.88,0,0,1-.82-2.64,4.44,4.44,0,0,1,.4-2,2.87,2.87,0,0,1,1.13-1.25,3,3,0,0,1,1.61-.44,2.9,2.9,0,0,1,.83.1,2.53,2.53,0,0,1,.59.26,1.67,1.67,0,0,1,.36.28l.17.17a.65.65,0,0,1,.2-.5.65.65,0,0,1,.48-.19H98Z"></path><path class="cls-2" d="M100.9,33.38a2,2,0,0,1,.72-.68,1.84,1.84,0,0,1,.94-.25,1.63,1.63,0,0,1,.72.13.43.43,0,0,1,.28.39.83.83,0,0,1-.08.32,1.45,1.45,0,0,1-.2.32,1.12,1.12,0,0,0-.41-.27,1.32,1.32,0,0,0-.52-.08,1.52,1.52,0,0,0-1,.36,1,1,0,0,0-.45.81v5.15h-.85v-7h.06a.78.78,0,0,1,.58.21.81.81,0,0,1,.21.6"></path><path class="cls-2" d="M109.25,36.11a3.54,3.54,0,0,0-.57-2.19,2,2,0,0,0-1.68-.74,2,2,0,0,0-1.7.79,3.46,3.46,0,0,0-.6,2.14,3.65,3.65,0,0,0,.58,2.2,2,2,0,0,0,1.69.78,2,2,0,0,0,1.71-.76,3.65,3.65,0,0,0,.57-2.22m.92,0a4.12,4.12,0,0,1-.83,2.71,3.32,3.32,0,0,1-4.72,0,4,4,0,0,1-.83-2.67,4.5,4.5,0,0,1,.41-1.95,3.12,3.12,0,0,1,1.14-1.31,3.16,3.16,0,0,1,1.69-.45,2.83,2.83,0,0,1,2.32,1,4,4,0,0,1,.82,2.68"></path><path class="cls-2" d="M117.57,39.58h-.87v-.81a2.85,2.85,0,0,1-1.09.7,4,4,0,0,1-1.43.25,2.62,2.62,0,0,1-1.52-.41,1.73,1.73,0,0,1-.72-1.12,5.83,5.83,0,0,1-.12-1.34V32.57h.06a.71.71,0,0,1,.8.81v3.47a3.55,3.55,0,0,0,.15,1.13c.19.64.75,1,1.7,1a3.18,3.18,0,0,0,1-.19,2.8,2.8,0,0,0,.83-.44.66.66,0,0,0,.32-.47V32.57h.06c.53,0,.79.28.79.83Z"></path><path class="cls-2" d="M124.62,36.14a3.65,3.65,0,0,0-.55-2.19,1.9,1.9,0,0,0-1.63-.75,2.82,2.82,0,0,0-1.11.21,1.77,1.77,0,0,0-.75.56.56.56,0,0,0-.12.33v3.92a2.5,2.5,0,0,0,.83.63,2.45,2.45,0,0,0,1.06.24,2,2,0,0,0,1.69-.75,3.52,3.52,0,0,0,.58-2.2m-5,6.72V32.57h.06c.53,0,.8.25.8.75a3,3,0,0,1,1-.63,3,3,0,0,1,1.19-.24,2.66,2.66,0,0,1,2.16.92,4.1,4.1,0,0,1,.76,2.67,5.06,5.06,0,0,1-.37,2.06,2.81,2.81,0,0,1-1.07,1.27,3,3,0,0,1-1.6.44,3.24,3.24,0,0,1-1.08-.18,2.84,2.84,0,0,1-.66-.35,3,3,0,0,1-.29-.27v3.85Z"></path><g class="cls-3"><polygon class="cls-4" points="28.01 41.35 -6.2 30.3 2.61 2.92 36.82 13.97 28.01 41.35"></polygon></g><g class="cls-5"><rect class="cls-6" x="19.53" width="31.54" height="33.81"></rect></g><g class="cls-7"><rect class="cls-8" x="14.61" y="18.36" width="13.35" height="18.1"></rect></g></g></g></svg>