<?xml version="1.0" encoding="UTF-8"?>
<svg viewBox="0 0 70.05 56.3" version="1.1" xmlns="http://www.w3.org/2000/svg" xmlns:xlink="http://www.w3.org/1999/xlink">
    <title>All Riders Icon</title>
    <g id="Page-1" stroke="none" stroke-width="1" fill="none" fill-rule="evenodd">
        <g id="All-Riders-Icon" transform="translate(0.650000, 0.650000)" fill="#76DAE7" fill-rule="nonzero" stroke="#3C3C3B" stroke-width="1.3">
            <path d="M26.9306637,23.91211 L33.5048822,18.4335944 C34.0822747,17.9451475 34.9303693,17.9031432 35.5577159,18.3228418 L43.7357438,23.774502 C44.0214831,23.965821 44.3437487,24.0625 44.6875,24.0625 L51.5625,24.0625 C52.5125384,24.0625 53.28125,23.2937884 53.28125,22.34375 C53.28125,21.3937116 52.5078112,20.625 51.5625,20.625 L45.2074215,20.625 L37.4633789,15.4623049 C35.5781263,14.2011732 33.0429694,14.3408203 31.3027337,15.7910156 L24.7285153,21.1728522 C23.8906243,21.9677734 23.4394528,22.9990241 23.5039066,24.0947269 C23.5626562,25.1893561 24.1182517,26.1647469 25.0292969,26.7738287 L32.65625,31.8613288 L32.65625,44.6875 C32.65625,45.6375384 33.4249616,46.40625 34.375,46.40625 C35.3250384,46.40625 36.09375,45.6375384 36.09375,44.6875 L36.09375,30.9375 C36.09375,30.3634381 35.8067191,29.8267582 35.3283691,29.5077151 L26.9306637,23.91211 Z M41.25,13.75 C45.0473639,13.75 48.125,10.6723639 48.125,6.875 C48.125,3.07763606 45.0473639,0 41.25,0 C37.4526361,0 34.375,3.07763606 34.375,6.875 C34.375,10.6723639 37.4580091,13.75 41.25,13.75 Z M41.25,3.4375 C43.1449234,3.4375 44.6875,4.98007655 44.6875,6.875 C44.6875,8.76992345 43.1449234,10.3125 41.25,10.3125 C39.3550766,10.3125 37.8125,8.76992345 37.8125,6.875 C37.8125,4.98007655 39.3593743,3.4375 41.25,3.4375 Z M13.75,27.5 C6.15634739,27.5 0,33.6563474 0,41.25 C0,48.8436526 6.15634739,55 13.75,55 C21.3436526,55 27.5,48.8436526 27.5,41.25 C27.5,33.6552721 21.3447262,27.5 13.75,27.5 Z M13.75,51.5625 C8.06308568,51.5625 3.4375,46.9358391 3.4375,41.25 C3.4375,35.5630857 8.06308568,30.9375 13.75,30.9375 C19.4369143,30.9375 24.0625,35.5630857 24.0625,41.25 C24.0625,46.9326165 19.4326165,51.5625 13.75,51.5625 Z M55,27.5 C47.4063474,27.5 41.25,33.6563474 41.25,41.25 C41.25,48.8436526 47.4063474,55 55,55 C62.5936526,55 68.75,48.8436526 68.75,41.25 C68.75,33.6552721 62.5947279,27.5 55,27.5 Z M55,51.5625 C49.3130857,51.5625 44.6875,46.9358391 44.6875,41.25 C44.6875,35.5630857 49.3130857,30.9375 55,30.9375 C60.6869143,30.9375 65.3125,35.5630857 65.3125,41.25 C65.3125,46.9326165 60.6826198,51.5625 55,51.5625 Z" id="Shape"></path>
        </g>
    </g>
</svg>