<?xml version="1.0" encoding="UTF-8"?>
<svg viewBox="0 0 65.7373476 65.7373476" version="1.1" xmlns="http://www.w3.org/2000/svg" xmlns:xlink="http://www.w3.org/1999/xlink">
    <title>Consent not received Copy</title>
    <g id="Page-1" stroke="none" stroke-width="1" fill="none" fill-rule="evenodd">
        <g id="Consent-not-received-Copy" transform="translate(0.900000, 0.900000)" fill="#F9423B" fill-rule="nonzero" stroke="#3C3C3B" stroke-width="1.8">
            <path d="M31.9686738,0 C14.3085596,0 0,14.3085596 0,31.9686738 C0,49.6287879 14.3085596,63.9373476 31.9686738,63.9373476 C49.6287879,63.9373476 63.9373476,49.6287879 63.9373476,31.9686738 C63.9373476,14.3085596 49.6287879,0 31.9686738,0 Z M31.9686738,57.7498623 C17.7245671,57.7498623 6.18748525,46.2127804 6.18748525,31.9686738 C6.18748525,17.7245671 17.7245671,6.18748525 31.9686738,6.18748525 C46.2127804,6.18748525 57.7498623,17.7245671 57.7498623,31.9686738 C57.7498623,46.2127804 46.2127804,57.7498623 31.9686738,57.7498623 Z M45.0912736,23.950699 C45.6971567,23.3448159 45.6971567,22.3651811 45.0912736,21.7592979 L42.1780496,18.846074 C41.5721665,18.2401909 40.5925317,18.2401909 39.9866486,18.846074 L31.9686738,26.8640488 L23.950699,18.846074 C23.3448159,18.2401909 22.3651811,18.2401909 21.7592979,18.846074 L18.846074,21.7592979 C18.2401909,22.3651811 18.2401909,23.3448159 18.846074,23.950699 L26.8640488,31.9686738 L18.846074,39.9866486 C18.2401909,40.5925317 18.2401909,41.5721665 18.846074,42.1780496 L21.7592979,45.0912736 C22.3651811,45.6971567 23.3448159,45.6971567 23.950699,45.0912736 L31.9686738,37.0732988 L39.9866486,45.0912736 C40.5925317,45.6971567 41.5721665,45.6971567 42.1780496,45.0912736 L45.0912736,42.1780496 C45.6971567,41.5721665 45.6971567,40.5925317 45.0912736,39.9866486 L37.0732988,31.9686738 L45.0912736,23.950699 Z" id="Shape"></path>
        </g>
    </g>
</svg>