<?xml version="1.0" encoding="UTF-8"?>
<svg viewBox="0 0 65.7373476 65.7373476" version="1.1" xmlns="http://www.w3.org/2000/svg" xmlns:xlink="http://www.w3.org/1999/xlink">
    <title>Consent withdrawn Copy</title>
    <g id="Page-1" stroke="none" stroke-width="1" fill="none" fill-rule="evenodd">
        <g id="Consent-withdrawn-Copy" transform="translate(0.900000, 0.900000)" fill="#FE9F1D" fill-rule="nonzero" stroke="#3C3C3B" stroke-width="1.8">
            <path d="M31.9686738,0 C14.3128397,0 0,14.3128397 0,31.9686738 C0,49.6245078 14.3128397,63.9373476 31.9686738,63.9373476 C49.6245078,63.9373476 63.9373476,49.6245078 63.9373476,31.9686738 C63.9373476,14.3128397 49.6245078,0 31.9686738,0 Z M50.198668,13.7386796 C59.6314611,23.1713467 60.1308457,37.8828633 52.2565054,47.8813823 L16.0559653,11.6808422 C26.0575055,3.80398416 40.7683926,4.3082783 50.198668,13.7386796 Z M13.7386796,50.198668 C4.30588649,40.7660008 3.80650185,26.0544842 11.6808422,16.0559653 L47.8813823,52.2565054 C37.8798421,60.1333634 23.1689549,59.6290693 13.7386796,50.198668 Z" id="Shape"></path>
        </g>
    </g>
</svg>