<?xml version="1.0" encoding="UTF-8"?>
<svg viewBox="0 0 65.7373476 65.7373476" version="1.1" xmlns="http://www.w3.org/2000/svg" xmlns:xlink="http://www.w3.org/1999/xlink">
    <title>Consent received Copy</title>
    <g id="Page-1" stroke="none" stroke-width="1" fill="none" fill-rule="evenodd">
        <g id="Consent-received-Copy" transform="translate(0.900000, 0.900000)" fill="#78D64C" fill-rule="nonzero" stroke="#3C3C3B" stroke-width="1.8">
            <path d="M31.9686738,0 C14.3128397,0 0,14.3128397 0,31.9686738 C0,49.6245078 14.3128397,63.9373476 31.9686738,63.9373476 C49.6245078,63.9373476 63.9373476,49.6245078 63.9373476,31.9686738 C63.9373476,14.3128397 49.6245078,0 31.9686738,0 Z M31.9686738,6.18748525 C46.2169346,6.18748525 57.7498623,17.7182729 57.7498623,31.9686738 C57.7498623,46.2169346 46.2190747,57.7498623 31.9686738,57.7498623 C17.7204129,57.7498623 6.18748525,46.2190747 6.18748525,31.9686738 C6.18748525,17.7204129 17.7182729,6.18748525 31.9686738,6.18748525 Z M50.0418157,22.9796243 L47.1367742,20.0511683 C46.5351712,19.4446558 45.5557881,19.4407534 44.9492756,20.0424823 L26.7280933,38.1171348 L19.0205502,30.347027 C18.4189472,29.7405144 17.4395641,29.7364861 16.8330516,30.3380891 L13.9044697,33.2431306 C13.2979572,33.8447336 13.2939289,34.8242425 13.8956578,35.4308809 L25.5979004,47.2277889 C26.1995034,47.8343014 27.1788865,47.8383297 27.785399,47.2366008 L50.0331296,25.1673747 C50.6395163,24.5656458 50.6434187,23.5861369 50.0418157,22.9796243 Z" id="Shape"></path>
        </g>
    </g>
</svg>