<?xml version="1.0" encoding="UTF-8"?>
<svg viewBox="0 0 54.481123 54.481123" version="1.1" xmlns="http://www.w3.org/2000/svg" xmlns:xlink="http://www.w3.org/1999/xlink">
    <title>Delivery Complete Icon</title>
    <g id="Page-1" stroke="none" stroke-width="1" fill="none" fill-rule="evenodd">
        <g id="Delivery-Complete-Icon" transform="translate(0.600000, 0.600000)" fill="#76DAE7" fill-rule="nonzero" stroke="#3C3C3B" stroke-width="1.2">
            <path d="M26.6405615,0 C11.9273664,0 0,11.9273664 0,26.6405615 C0,41.3537565 11.9273664,53.281123 26.6405615,53.281123 C41.3537565,53.281123 53.281123,41.3537565 53.281123,26.6405615 C53.281123,11.9273664 41.3537565,0 26.6405615,0 Z M26.6405615,5.15623771 C38.5141122,5.15623771 48.1248853,14.7652274 48.1248853,26.6405615 C48.1248853,38.5141122 38.5158956,48.1248853 26.6405615,48.1248853 C14.7670108,48.1248853 5.15623771,38.5158956 5.15623771,26.6405615 C5.15623771,14.7670108 14.7652274,5.15623771 26.6405615,5.15623771 Z M41.701513,19.1496869 L39.2806452,16.7093069 C38.7793093,16.2038798 37.9631568,16.2006278 37.4577297,16.7020686 L22.2734111,31.764279 L15.8504585,25.2891891 C15.3491226,24.783762 14.5329701,24.7804051 14.027543,25.2817409 L11.5870581,27.7026088 C11.081631,28.2039447 11.0782741,29.0202021 11.5797148,29.5257341 L21.3315837,39.3564907 C21.8329195,39.8619178 22.6490721,39.8652748 23.1544992,39.363834 L41.6942747,20.9728122 C42.1995969,20.4713715 42.2028489,19.655114 41.701513,19.1496869 Z" id="Shape"></path>
        </g>
    </g>
</svg>