<?xml version="1.0" encoding="UTF-8"?>
<svg viewBox="0 0 42.55 56.3" version="1.1" xmlns="http://www.w3.org/2000/svg" xmlns:xlink="http://www.w3.org/1999/xlink">
    <title>Event Details Icon</title>
    <g id="Page-1" stroke="none" stroke-width="1" fill="none" fill-rule="evenodd">
        <g id="Event-Details-Icon" transform="translate(0.650000, 0.650000)" fill="#76DAE7" fill-rule="nonzero" stroke="#3C3C3B" stroke-width="1.3">
            <path d="M32.6562467,36.09375 L18.9062467,36.09375 C17.9609339,36.09375 17.1874967,36.8671888 17.1874967,37.8125 C17.1874967,38.7578112 17.9562083,39.53125 18.9062467,39.53125 L32.6562467,39.53125 C33.6062852,39.53125 34.3749967,38.7625384 34.3749967,37.8125 C34.3749967,36.8624616 33.6015579,36.09375 32.6562467,36.09375 Z M32.6562467,25.78125 L22.3437467,25.78125 C21.3984339,25.78125 20.6249967,26.5546872 20.6249967,27.5 C20.6249967,28.4453112 21.3937083,29.21875 22.3437467,29.21875 L32.6562467,29.21875 C33.6015579,29.21875 34.3749967,28.4453112 34.3749967,27.5 C34.3749967,26.5546888 33.6015579,25.78125 32.6562467,25.78125 Z M10.3124967,35.234375 C8.88915688,35.234375 7.73437172,36.3880849 7.73437172,37.8125 C7.73437172,39.2358398 8.88915688,40.390625 10.3124967,40.390625 C11.7369118,40.390625 12.8906234,39.2358398 12.8906234,37.8125 C12.8906234,36.3837904 11.7412096,35.234375 10.3124984,35.234375 L10.3124967,35.234375 Z M34.3749984,6.875 C33.4249599,6.875 32.6562484,7.64371157 32.6562484,8.59375 C32.6562484,9.54378843 33.4296872,10.3125 34.3749984,10.3125 C36.2699218,10.3125 37.8124984,11.8529293 37.8124984,13.75 L37.8124984,48.125 C37.8124984,50.0220707 36.2699218,51.5625 34.3749984,51.5625 L6.87499836,51.5625 C4.98007655,51.5625 3.43749836,50.0220707 3.43749836,48.125 L3.43749836,13.75 C3.43749836,11.8529293 4.98007655,10.3125 6.87499836,10.3125 C7.82503843,10.3125 8.59375,9.54378843 8.59375,8.59375 C8.59375,7.64371157 7.82460898,6.875 6.875,6.875 C3.08300748,6.875 0,9.96015638 0,13.75 L0,48.125 C0,51.9148436 3.08300748,55 6.875,55 L34.375,55 C38.1669909,55 41.25,51.9148436 41.25,48.125 L41.25,13.75 C41.25,9.96015638 38.1669909,6.875 34.375,6.875 L34.3749984,6.875 Z M12.03125,13.75 L29.21875,13.75 C30.1640612,13.75 30.9375,12.9765612 30.9375,12.03125 C30.9375,11.0859388 30.1640612,10.3125 29.21875,10.3125 L26.5460932,10.3125 C27.1347663,9.29736197 27.5,8.13398451 27.5,6.875 C27.5,3.07763606 24.4223639,0 20.625,0 C16.8276361,0 13.75,3.07763606 13.75,6.875 C13.75,8.13398451 14.1129783,9.29736197 14.7035839,10.3125 L12.03125,10.3125 C11.0859372,10.3125 10.3125,11.0859388 10.3125,12.03125 C10.3125,12.9765612 11.0859372,13.75 12.03125,13.75 Z M20.625,3.4375 C22.5199218,3.4375 24.0625,4.98007655 24.0625,6.875 C24.0625,8.76992345 22.5199218,10.3125 20.625,10.3125 C18.7300782,10.3125 17.1875,8.76992345 17.1875,6.875 C17.1875,4.98007655 18.7343743,3.4375 20.625,3.4375 Z M7.33154297,24.6210934 C6.68701172,25.3193356 6.73062563,26.4032219 7.42888913,27.0477532 L11.1521317,30.4852515 C11.4834011,30.78711 11.9023474,30.9375 12.321292,30.9375 C12.7727865,30.9375 13.2242809,30.7596087 13.5620166,30.407052 L20.1502004,23.532052 C20.8081594,22.8472376 20.7846346,21.7595911 20.0981647,21.1021698 C19.4150697,20.4475415 18.3278526,20.4677355 17.669356,21.1558807 L12.149418,26.8125007 L9.75820601,24.5244144 C9.06533524,23.8798831 7.97285497,23.91211 7.33154625,24.6210934 L7.33154297,24.6210934 Z" id="Shape"></path>
        </g>
    </g>
</svg>