<?xml version="1.0" encoding="UTF-8"?>
<svg viewBox="0 0 49.425 56.3" version="1.1" xmlns="http://www.w3.org/2000/svg" xmlns:xlink="http://www.w3.org/1999/xlink">
    <title>Instructor Notes Icon</title>
    <defs>
        <path d="M12.03125,34.375 L36.09375,34.375 C37.0429295,34.375 37.8125,33.6054295 37.8125,32.65625 C37.8125,31.7109388 37.0390612,30.9375 36.09375,30.9375 L12.03125,30.9375 C11.0859372,30.9375 10.3125,31.7109388 10.3125,32.65625 C10.3125,33.6015612 11.0859372,34.375 12.03125,34.375 Z M12.03125,24.0625 L36.09375,24.0625 C37.0390612,24.0625 37.8125,23.2890628 37.8125,22.34375 C37.8125,21.3984372 37.0390612,20.625 36.09375,20.625 L12.03125,20.625 C11.0859372,20.625 10.3125,21.3984372 10.3125,22.34375 C10.3125,23.2890628 11.0859372,24.0625 12.03125,24.0625 Z M12.03125,44.6875 L25.78125,44.6875 C26.7304295,44.6875 27.5,43.9179295 27.5,42.96875 C27.5,42.0193541 26.7304295,41.25 25.78125,41.25 L12.03125,41.25 C11.0859372,41.25 10.3125,42.0234388 10.3125,42.96875 C10.3125,43.9140612 11.0859372,44.6875 12.03125,44.6875 Z M41.25,0 L6.875,0 C3.07763606,0 0,3.07763606 0,6.875 L0,48.125 C0,51.9223639 3.07763606,55 6.875,55 L41.25,55 C45.0473639,55 48.125,51.9223639 48.125,48.125 L48.125,6.875 C48.125,3.07763606 45.0419909,0 41.25,0 Z M44.6875,48.125 C44.6875,50.0199234 43.1449234,51.5625 41.25,51.5625 L6.875,51.5625 C4.98007819,51.5625 3.4375,50.0199234 3.4375,48.125 L3.4375,13.75 L44.6875,13.75 L44.6875,48.125 Z M44.6875,10.3125 L3.4375,10.3125 L3.4375,6.875 C3.4375,4.98007655 4.98007819,3.4375 6.875,3.4375 L41.25,3.4375 C43.1449234,3.4375 44.6875,4.98007655 44.6875,6.875 L44.6875,10.3125 Z" id="path-1"></path>
    </defs>
    <g id="Page-1" stroke="none" stroke-width="1" fill="none" fill-rule="evenodd">
        <g id="Instructor-Notes-Icon" transform="translate(0.650000, 0.650000)" fill-rule="nonzero">
            <g id="Shape">
                <use fill="#B5B5B5" xlink:href="#path-1"></use>
                <use stroke="#3C3C3B" stroke-width="1.3" fill="#76DAE7" xlink:href="#path-1"></use>
            </g>
        </g>
    </g>
</svg>