<?xml version="1.0" encoding="UTF-8"?>
<svg viewBox="0 0 63.075 56.2" version="1.1" xmlns="http://www.w3.org/2000/svg" xmlns:xlink="http://www.w3.org/1999/xlink">
    <title>L3 Icon</title>
    <g id="Page-1" stroke="none" stroke-width="1" fill="none" fill-rule="evenodd">
        <g id="L3-Icon" transform="translate(0.600000, 0.600000)" fill="#FF9D18" fill-rule="nonzero" stroke="#3C3C3B" stroke-width="1.2">
            <path d="M6.875,37.8125 L3.4375,37.8125 C1.53935567,37.8125 0,39.351854 0,41.25 L0,51.5625 C0,53.460646 1.53935567,55 3.4375,55 L6.875,55 C8.77314433,55 10.3125,53.460646 10.3125,51.5625 L10.3125,41.25 C10.3125,39.3486315 8.77314433,37.8125 6.875,37.8125 Z M6.875,51.5625 L3.4375,51.5625 L3.4375,41.25 L6.875,41.25 L6.875,51.5625 Z M58.4375,20.625 L55,20.625 C53.101854,20.625 51.5625,22.1643557 51.5625,24.0625 L51.5625,51.5625 C51.5625,53.460646 53.101854,55 55,55 L58.4375,55 C60.3356427,55 61.875,53.460646 61.875,51.5625 L61.875,24.0625 C61.875,22.1611331 60.3388685,20.625 58.4375,20.625 Z M58.4375,51.5625 L55,51.5625 L55,24.0625 L58.4375,24.0625 L58.4375,51.5625 Z M41.25,34.375 L37.8125,34.375 C35.914354,34.375 34.375,35.914354 34.375,37.8125 L34.375,51.5625 C34.375,53.460646 35.914354,55 37.8125,55 L41.25,55 C43.148146,55 44.6875,53.460646 44.6875,51.5625 L44.6875,37.8125 C44.6875,35.9111315 43.1513685,34.375 41.25,34.375 Z M41.25,51.5625 L37.8125,51.5625 L37.8125,37.8125 L41.25,37.8125 L41.25,51.5625 Z M24.0625,20.625 L20.625,20.625 C18.7236331,20.625 17.1875,22.1611331 17.1875,24.0625 L17.1875,51.5625 C17.1875,53.460646 18.7268557,55 20.625,55 L24.0625,55 C25.9606443,55 27.5,53.460646 27.5,51.5625 L27.5,24.0625 C27.5,22.1611331 25.9638669,20.625 24.0625,20.625 Z M24.0625,51.5625 L20.625,51.5625 L20.625,24.0625 L24.0625,24.0625 L24.0625,51.5625 Z M54.2587897,9.58203256 C54.903321,10.0031245 55.8056641,10.3125 56.71875,10.3125 C59.5654297,10.3125 61.875,8.00400496 61.875,5.15625 C61.875,2.30849504 59.5654297,0 56.71875,0 C53.8720703,0 51.5625,2.30849504 51.5625,5.15625 C51.5625,5.81775278 51.7317957,6.42597735 51.9646862,7.00390756 L41.9912103,14.4804674 C41.25,14.0615228 40.4443359,13.75 39.53125,13.75 C38.6181641,13.75 37.8071302,14.0590543 37.0669919,14.4805756 L27.1025394,7.00390756 C27.3281243,6.42597735 27.5,5.81796914 27.5,5.15625 C27.5,2.30849504 25.1904297,0 22.34375,0 C19.4970703,0 17.1875,2.30849504 17.1875,5.15625 C17.1875,5.94633907 17.4188875,6.66337878 17.738896,7.3304677 L7.33079061,17.7385747 C6.66337878,17.4238294 5.94687507,17.1875 5.15625,17.1875 C2.30849668,17.1875 0,19.4970703 0,22.34375 C0,25.1904297 2.30849668,27.5 5.15625,27.5 C8.00400496,27.5 10.3125016,25.1904297 10.3125016,22.34375 C10.3125016,21.5536626 10.0811142,20.8366212 9.76110399,20.1695323 L20.1692094,9.76142526 C20.7431664,10.0815436 21.5488304,10.3125 22.3437516,10.3125 C23.2579112,10.3125 24.0678731,10.0034457 24.8080097,9.58192438 L34.7767584,17.0584875 C34.5468773,17.6386732 34.3750016,18.2402331 34.3750016,18.90625 C34.3750016,21.7529297 36.684572,24.0625 39.5312516,24.0625 C42.3779313,24.0625 44.6875016,21.7529297 44.6875016,18.90625 C44.6875016,18.2447439 44.518206,17.6365227 44.2853154,17.0585924 L54.2587914,9.58203256 L54.2587897,9.58203256 Z M56.7187516,3.4375 C57.6640628,3.4375 58.4375016,4.20878828 58.4375016,5.15625 C58.4375016,6.10371172 57.6640628,6.875 56.7187516,6.875 C56.2018363,6.875 55.8190934,6.63039953 55.5886714,6.42533153 L55.3809153,6.24002814 L55.2336429,5.97502053 C55.0751983,5.69228411 55.0000016,5.42480469 55.0000016,5.15625 C55.0000016,4.20878828 55.7734405,3.4375 56.7187516,3.4375 Z M5.15625164,24.0625 C4.20878991,24.0625 3.4375,23.2890628 3.4375,22.34375 C3.4375,21.3984372 4.20878991,20.625 5.15625164,20.625 C5.50934762,20.625 5.84149718,20.7339266 6.14324585,20.9487703 L6.381616,21.1184971 L6.55134276,21.3568656 C6.76650941,21.6562507 6.87500492,21.9892575 6.87500492,22.34375 C6.87500492,23.2890628 6.103715,24.0625 5.15625328,24.0625 L5.15625164,24.0625 Z M23.8261755,5.97480416 L23.6865267,6.24013633 L23.471683,6.42597735 C23.2460964,6.63007826 22.8593786,6.875 22.3437533,6.875 C21.9892608,6.875 21.6562539,6.76650286 21.3554724,6.55165911 L21.1191446,6.38193399 L20.9472689,6.14345729 C20.7324252,5.84160209 20.6250033,5.50966889 20.6250033,5.15625 C20.6250033,4.20878828 21.3984405,3.4375 22.3437533,3.4375 C23.2890661,3.4375 24.0625033,4.20878828 24.0625033,5.15625 C24.0625033,5.42480469 23.9873083,5.69228411 23.8261755,5.97480416 Z M39.5312533,20.625 C38.5859421,20.625 37.8125033,19.8515612 37.8125033,18.90625 C37.8125033,18.6381248 37.8890833,18.3702159 38.0464691,18.0873746 L38.1937447,17.8223637 L38.4014976,17.6370603 C38.6289102,17.434569 39.0156296,17.1875 39.5312533,17.1875 C40.046877,17.1875 40.4309115,17.4320972 40.6613302,17.6371685 L40.8690831,17.8224719 L41.0163587,18.0874795 C41.1748067,18.3691406 41.2500033,18.6376953 41.2500033,18.90625 C41.2500033,19.8515612 40.4765645,20.625 39.5312533,20.625 Z" id="Shape"></path>
        </g>
    </g>
</svg>