<?xml version="1.0" encoding="UTF-8"?>
<svg viewBox="0 0 66.003871 57.7498623" version="1.1" xmlns="http://www.w3.org/2000/svg" xmlns:xlink="http://www.w3.org/1999/xlink">
    <title>Medical issues</title>
    <g id="Page-1" stroke="none" stroke-width="1" fill="none" fill-rule="evenodd">
        <g id="Medical-issues" fill="#000000" fill-rule="nonzero">
            <path d="M44.3476726,22.6874459 L37.1289398,22.6874459 L37.1289398,15.4687131 C37.1289398,14.8994625 36.6669429,14.4374656 36.0976923,14.4374656 L29.910207,14.4374656 C29.3409564,14.4374656 28.8789595,14.8994625 28.8789595,15.4687131 L28.8789595,22.6874459 L21.6602267,22.6874459 C21.090976,22.6874459 20.6289791,23.1494428 20.6289791,23.7186935 L20.6289791,29.9061787 C20.6289791,30.4754294 21.090976,30.9374262 21.6602267,30.9374262 L28.8789595,30.9374262 L28.8789595,38.156159 C28.8789595,38.7254097 29.3409564,39.1874066 29.910207,39.1874066 L36.0976923,39.1874066 C36.6669429,39.1874066 37.1289398,38.7254097 37.1289398,38.156159 L37.1289398,30.9374262 L44.3476726,30.9374262 C44.9169232,30.9374262 45.3789201,30.4754294 45.3789201,29.9061787 L45.3789201,23.7186935 C45.3789201,23.1494428 44.9169232,22.6874459 44.3476726,22.6874459 Z M33.0039496,0 C14.7792426,0 0.00402831071,12.0037365 0.00402831071,26.8124361 C0.00402831071,32.9418885 2.56414565,38.5725856 6.82320303,43.089329 C4.90245413,48.1746936 0.906369909,52.4723976 0.847078211,52.5291716 C0.379416515,53.0231432 0,53.9759646 0,54.6561197 C0,56.3638717 1.38599065,57.7498623 3.09374262,57.7498623 L3.09777093,57.7498623 C11.0267453,57.7498623 17.2774246,54.4344367 21.0350832,51.7776399 C24.2562212,52.7973061 29.6124897,53.6248721 32.9912353,53.6248721 L33.0039496,53.6248721 C51.2286567,53.6248721 66.003871,41.6198768 66.003871,26.8124361 C66.003871,12.0049953 51.2286567,0 33.0039496,0 Z M33.0039496,47.4373869 L32.9864517,47.4373869 C30.1365477,47.4373869 25.6185455,46.7392303 22.9015758,45.8789342 L19.9689656,44.9495274 L17.4592021,46.7258865 C15.5729457,48.0715941 12.2541212,49.7463642 10.0510129,50.4641589 C10.8880203,49.0964215 12.0349559,46.7720862 12.6110043,45.2756947 L13.9787417,41.6572646 L11.3245885,38.8432378 C8.98237757,36.3605395 6.19151356,32.2587122 6.19151356,26.8124361 C6.19151356,15.4403891 18.2196717,6.18748525 33.0039496,6.18748525 C47.7882276,6.18748525 59.8163857,15.4403891 59.8163857,26.8124361 C59.8163857,38.1844831 47.7882276,47.4373869 33.0039496,47.4373869 Z" id="Shape"></path>
        </g>
    </g>
</svg>