<?xml version="1.0" encoding="UTF-8"?>
<svg viewBox="0 0 82.4791483 65.8845163" version="1.1" xmlns="http://www.w3.org/2000/svg" xmlns:xlink="http://www.w3.org/1999/xlink">
    <title>No photography</title>
    <g id="Page-1" stroke="none" stroke-width="1" fill="none" fill-rule="evenodd">
        <g id="No-photography" transform="translate(0.000000, 0.000000)" fill="#000000" fill-rule="nonzero">
            <path d="M16.5008352,55.6875 C15.3636235,55.6875 14.4383332,54.7622098 14.4383332,53.625 L14.4383332,23.7832031 L8.40938736,19.0523422 C8.310129,19.5679672 8.25083126,20.0835922 8.25083126,20.625 L8.25083126,53.625 C8.25083126,58.1818367 11.9439965,61.875 16.5008332,61.875 L63.0488809,61.875 L55.1546634,55.6875 L16.5008332,55.6875 L16.5008352,55.6875 Z M81.3148942,60.4699227 L74.1051685,54.8186731 C74.1605973,54.4242203 74.2508332,54.0375016 74.2508332,53.625 L74.2508332,20.625 C74.2508332,16.0681633 70.557666,12.375 66.0008332,12.375 L56.7195832,12.375 L55.629423,9.47331905 C54.4250536,6.25324345 51.344191,4.125 47.9023965,4.125 L34.5992699,4.125 C31.1574735,4.125 28.0895043,6.25324345 26.8777864,9.46816564 L25.7820832,12.375 L19.9555211,12.375 L5.00368447,0.658583164 C4.43649579,0.215530872 3.76360501,0 3.09844829,0 C2.17999126,0 1.26926829,0.40682888 0.660830631,1.18426323 C-0.394654201,2.53004479 -0.160946713,4.47523963 1.18444736,5.52840149 L77.3809286,65.2248867 C78.7344442,66.282305 80.675772,66.0406058 81.7237805,64.6992066 C82.9004355,63.4734367 82.6555184,61.5269516 81.3148902,60.4699227 L81.3148942,60.4699227 Z M41.0316871,28.9007809 C41.1090316,28.9007809 41.1734848,28.875 41.2508293,28.875 C45.2005187,28.875 48.5043826,31.6683982 49.3074699,35.3821889 L41.0316871,28.9007809 Z M68.0633293,50.0800781 L55.3312604,40.1014448 C55.5465316,39.1359383 55.6883293,38.0402352 55.6883293,37.125 C55.6883293,29.1508593 49.224968,22.6875 41.2508293,22.6875 C38.9936796,22.6875 36.8731741,23.2218189 34.983408,24.1557441 L27.8445793,18.5625 L30.0617664,18.5625 L32.6643839,11.6479669 C32.962157,10.8487505 33.748484,10.3125 34.599266,10.3125 L47.915284,10.3125 C48.7700629,10.3125 49.5459473,10.8502965 49.846301,11.6505475 L52.4270027,18.5625 L66.0008293,18.5625 C67.138043,18.5625 68.0633293,19.4877863 68.0633293,20.625 L68.0633293,50.0800781 Z M47.7992652,49.9253891 L41.9095383,45.3092566 C41.6891098,45.3234383 41.4699715,45.375 41.2508293,45.375 C37.1490315,45.375 33.7652424,42.3573042 33.1336026,38.4321113 L27.2387203,33.8121078 C26.9809078,34.882032 26.8133293,35.9777352 26.8133293,37.125 C26.8133293,45.0991387 33.2766906,51.5625 41.2508293,51.5625 C43.6227035,51.5625 45.8270012,50.9308602 47.7992652,49.9253891 Z" id="Shape"></path>
        </g>
    </g>
</svg>