<?xml version="1.0" encoding="UTF-8"?>
<svg viewBox="0 0 84.302321 67.7998426" version="1.1" xmlns="http://www.w3.org/2000/svg" xmlns:xlink="http://www.w3.org/1999/xlink">
    <title>Not present Copy</title>
    <g id="Page-1" stroke="none" stroke-width="1" fill="none" fill-rule="evenodd">
        <g id="Not-present-Copy" transform="translate(0.900000, 0.900000)" fill="#76DAE7" fill-rule="nonzero" stroke="#3C3C3B" stroke-width="1.8">
            <path d="M81.7276265,60.714699 L4.64187278,0.452429646 C4.32993047,0.202674383 3.75237142,0 3.35281336,0 C2.80584429,0 2.08465079,0.346560606 1.74274792,0.773435656 L0.453688494,2.38350109 C0.203303806,2.69569517 0,3.27388364 0,3.67407114 C0,4.22154374 0.347064144,4.94336666 0.774694503,5.28514365 L77.8604482,65.547413 C78.1723905,65.7971683 78.7499496,65.9998426 79.1495076,65.9998426 C79.6964767,65.9998426 80.4176702,65.653282 80.7595731,65.226407 L82.0486325,63.6163416 C82.2990172,63.3041475 82.502321,62.725959 82.502321,62.3257715 C82.502321,61.7782989 82.1552569,61.056476 81.7276265,60.714699 Z M38.2592586,18.8808182 L55.6344957,32.4649113 C55.3483597,24.7383596 49.0474523,18.5624557 41.2511605,18.5624557 C40.4161672,18.5639664 39.0758727,18.7067196 38.2592586,18.8808182 Z M44.2430624,47.1202833 L26.8678253,33.5361902 C27.155346,41.261483 33.4562534,47.4373869 41.2511605,47.4373869 C42.0860279,47.4356245 43.4264483,47.2935007 44.2430624,47.1202833 Z M41.2511605,14.4374656 C53.9677821,14.4374656 65.6259651,21.5272924 71.9217112,32.9999213 C70.6384424,35.3479229 68.0974596,38.824481 66.2498497,40.7600842 L71.1147902,44.5628096 C73.3682524,42.1521174 76.4232225,37.8145079 77.9339649,34.8806389 C78.1814542,34.3909474 78.3824921,33.5480233 78.3824921,32.9992919 C78.3824921,32.4505604 78.1814542,31.6076364 77.9339649,31.1179449 C70.9369151,17.4783366 57.0975277,8.24998033 41.2511605,8.24998033 C36.5202872,8.24998033 32.0073204,9.15232193 27.7637468,10.6746457 L33.7462918,15.3526474 C36.1876998,14.798377 38.6885255,14.4374656 41.2511605,14.4374656 Z M41.2511605,51.5623771 C28.5345389,51.5623771 16.8776148,44.4725502 10.5806098,32.9999213 C11.865641,30.6519197 14.4095192,27.1759911 16.2588914,25.2410172 L11.393951,21.4382919 C9.14086642,23.8487324 6.08652571,28.1857124 4.57616096,31.1192038 C4.32854574,31.6088953 4.12763374,32.4518193 4.12763374,33.0005507 C4.12763374,33.5492822 4.32854574,34.3922062 4.57616096,34.8818977 C11.5666648,48.521506 25.4060521,57.7498623 41.2511605,57.7498623 C45.9820338,57.7498623 50.4950006,56.8411006 54.7385742,55.3251969 L48.7560292,50.6484541 C46.3146212,51.2014656 43.8150544,51.5623771 41.2511605,51.5623771 Z" id="Shape"></path>
        </g>
    </g>
</svg>