<?xml version="1.0" encoding="UTF-8"?>
<svg viewBox="0 0 65.9998426 65.9998426" version="1.1" xmlns="http://www.w3.org/2000/svg" xmlns:xlink="http://www.w3.org/1999/xlink">
    <title>Note from teacher</title>
    <g id="Page-1" stroke="none" stroke-width="1" fill="none" fill-rule="evenodd">
        <g id="Note-from-teacher" fill="#000000" fill-rule="nonzero">
            <path d="M59.2851522,24.752458 C59.1948929,24.752458 59.1058924,24.7551023 59.0195355,24.7590047 C52.6000447,25.1250774 40.9069917,26.4347819 33.0011802,30.8909748 C25.0953686,26.4347819 13.4010568,25.1250774 6.98282484,24.7590047 C6.89646793,24.7538434 6.80746744,24.752458 6.71733399,24.752458 C4.08760241,24.7511998 0,26.6010756 0,31.2235622 L0,54.1752401 C0,57.6157951 2.73925128,60.4529847 6.23129313,60.6360211 C10.6669668,60.8694113 21.7722641,61.8064971 29.047645,65.4662174 C29.7527252,65.8232264 30.5094182,65.9998426 31.2635935,65.9998426 L34.7362491,65.9998426 C35.4890397,65.9998426 36.2471174,65.8232264 36.9521977,65.4662174 C44.2275786,61.8064971 55.3328759,60.8706701 59.7685495,60.6360211 C63.2605914,60.4529847 65.9998426,57.6145363 65.9998426,54.1752401 L65.9998426,31.2235622 C65.9998426,26.6010756 61.9122402,24.752458 59.2851522,24.752458 Z M29.9061787,59.094311 C22.0906265,55.7685629 12.0952547,54.7488967 6.55620156,54.4575995 C6.33577744,54.4460181 6.18748525,54.3016283 6.18748525,54.1752401 L6.12819355,31.1720753 C6.22613185,31.0740111 6.55229914,30.9477488 6.6283335,30.9349085 C11.2509459,31.1977558 22.7531577,32.2471308 29.9061787,36.2535375 L29.9061787,59.094311 Z M59.8123574,54.1752401 C59.8123574,54.3016283 59.6640652,54.4460181 59.4423822,54.4575995 C53.9072316,54.7488967 43.9182798,55.767304 36.0936639,59.0956957 L36.0936639,36.2535375 C43.224781,32.259971 54.6780236,31.2055607 59.2876699,30.9399439 C59.4681886,30.9568125 59.7749696,31.0805572 59.8123574,31.2235622 L59.8123574,54.1752401 Z M32.9999213,24.7486821 C39.834454,24.7486821 45.3748918,19.2082443 45.3748918,12.3749705 C45.3748918,5.54169669 39.834454,0 32.9999213,0 C26.1653887,0 20.6249508,5.54043784 20.6249508,12.3737116 C20.6249508,19.2069855 26.1653887,24.7486821 32.9999213,24.7486821 Z M32.9999213,6.18748525 C36.4120264,6.18748525 39.1874066,8.96286544 39.1874066,12.3749705 C39.1874066,15.7870756 36.4120264,18.5624557 32.9999213,18.5624557 C29.5878163,18.5624557 26.8124361,15.7870756 26.8124361,12.3749705 C26.8124361,8.96286544 29.5878163,6.18748525 32.9999213,6.18748525 Z" id="Shape"></path>
        </g>
    </g>
</svg>