<?xml version="1.0" encoding="UTF-8"?>
<svg viewBox="0 0 35.6287447 49.425" version="1.1" xmlns="http://www.w3.org/2000/svg" xmlns:xlink="http://www.w3.org/1999/xlink">
    <title>Register Icon</title>
    <g id="Page-1" stroke="none" stroke-width="1" fill="none" fill-rule="evenodd">
        <g id="Register-Icon" transform="translate(0.650000, 0.650000)" fill="#76DAE7" fill-rule="nonzero" stroke="#3C3C3B" stroke-width="1.3">
            <path d="M33.5048854,26.3291022 L4.28291291,0.643455982 C3.80381063,0.220213532 3.19580242,0 2.57920027,0 C2.2204116,0 1.85947403,0.074121356 1.51679799,0.226658583 C0.59415102,0.642383993 0,1.56621277 0,2.58027226 L0,42.0148432 C0,43.095507 0.674717426,44.0623039 1.68867201,44.4350579 C1.97903365,44.5408046 2.27949232,44.59286 2.57823318,44.59286 C3.32008928,44.59286 4.04346749,44.2722073 4.54190493,43.6848226 L14.2292105,32.287361 L20.7722773,47.0149007 C21.0546891,47.7490234 21.6884775,48.125 22.3437516,48.125 C22.5753538,48.125 22.8137223,48.0780029 23.0402744,47.9772949 C23.9080286,47.5912213 24.29711,46.5754408 23.9130771,45.7074702 L17.3485263,30.9369624 L31.7967685,30.9369624 C32.8692694,30.9369624 33.8291918,30.2739549 34.2083909,29.269776 C34.4931664,28.262696 34.3105479,27.1347663 33.5048838,26.3291022 L33.5048854,26.3291022 Z M13.8681664,27.403321 L3.43750164,39.7675794 L3.43750164,4.48056549 L29.5195316,27.5010753 L13.8681664,27.5010753 L13.8681664,27.403321 Z" id="Shape"></path>
        </g>
    </g>
</svg>