<?xml version="1.0" encoding="UTF-8"?>
<svg viewBox="0 0 56.2998689 56.2998689" version="1.1" xmlns="http://www.w3.org/2000/svg" xmlns:xlink="http://www.w3.org/1999/xlink">
    <title>Rider Issues Icon</title>
    <defs>
        <path d="M27.4999344,3.4374918 C34.1385695,3.4374918 39.5311558,8.83007805 39.5311558,15.4687131 C39.5311558,22.1073482 34.1385695,27.4999344 27.4999344,27.4999344 C20.8612994,27.4999344 15.4687131,22.1073482 15.4687131,15.4687131 C15.4687131,8.83007805 20.8612994,3.4374918 27.4999344,3.4374918 Z M41.2499017,37.8124098 C46.9325473,37.8124098 51.5623771,42.4422397 51.5623771,48.1248853 L51.5623771,51.5623771 L3.4374918,51.5623771 L3.4374918,48.1248853 C3.4374918,42.4422397 8.06732162,37.8124098 13.7499672,37.8124098 C22.8808048,37.8124098 20.9794212,39.5311558 27.4999344,39.5311558 C34.041953,39.5311558 32.1083638,37.8124098 41.2499017,37.8124098 Z M27.4999344,0 C18.9599157,0 12.0312213,6.92869442 12.0312213,15.4687131 C12.0312213,24.0087318 18.9599157,30.9374262 27.4999344,30.9374262 C36.0399531,30.9374262 42.9686476,24.0087318 42.9686476,15.4687131 C42.9686476,6.92869442 36.0399531,0 27.4999344,0 Z M41.2499017,34.374918 C31.3241021,34.374918 33.6229667,36.0936639 27.4999344,36.0936639 C21.3984075,36.0936639 23.6649617,34.374918 13.7499672,34.374918 C6.15523778,34.374918 0,40.5301558 0,48.1248853 L0,51.5623771 C0,53.4637607 1.53610817,54.9998689 3.4374918,54.9998689 L51.5623771,54.9998689 C53.4637607,54.9998689 54.9998689,53.4637607 54.9998689,51.5623771 L54.9998689,48.1248853 C54.9998689,40.5301558 48.8446311,34.374918 41.2499017,34.374918 Z" id="path-1"></path>
    </defs>
    <g id="Page-1" stroke="none" stroke-width="1" fill="none" fill-rule="evenodd">
        <g id="Rider-Issues-Icon" transform="translate(0.650000, 0.650000)" fill-rule="nonzero">
            <g id="Shape">
                <use fill="#FFFFFF" xlink:href="#path-1"></use>
                <use stroke="#3C3C3B" stroke-width="1.3" fill="#76DAE7" xlink:href="#path-1"></use>
            </g>
        </g>
    </g>
</svg>