<?xml version="1.0" encoding="UTF-8"?>
<svg viewBox="0 0 49.499882 66.0126829" version="1.1" xmlns="http://www.w3.org/2000/svg" xmlns:xlink="http://www.w3.org/1999/xlink">
    <title>SEND notes</title>
    <g id="Page-1" stroke="none" stroke-width="1" fill="none" fill-rule="evenodd">
        <g id="SEND-notes" fill="#000000" fill-rule="nonzero">
            <path d="M47.6823585,12.6327824 L36.8670996,1.81752344 C35.7069461,0.657369954 34.1342684,0 32.4971378,0 L6.18748525,0 C2.77147777,0.0128402404 0,2.78431801 0,6.20032549 L0,59.8251976 C0,63.2412051 2.77147777,66.0126829 6.18748525,66.0126829 L43.3123967,66.0126829 C46.7284042,66.0126829 49.499882,63.2412051 49.499882,59.8251976 L49.499882,17.0155844 C49.499882,15.3784538 48.842512,13.7929359 47.6823585,12.6327824 Z M42.8096132,16.5128009 L32.9999213,16.5128009 L32.9999213,6.70310902 L42.8096132,16.5128009 Z M6.18748525,59.8251976 L6.18748525,6.20032549 L26.8124361,6.20032549 L26.8124361,19.6065435 C26.8124361,21.3209674 28.1917548,22.7002861 29.9061787,22.7002861 L43.3123967,22.7002861 L43.3123967,59.8251976 L6.18748525,59.8251976 Z M20.1866203,27.4311594 L21.0245089,40.8373775 C21.0761216,41.6494597 21.7464577,42.2939894 22.5713802,42.2939894 L26.9285018,42.2939894 C27.740584,42.2939894 28.4237604,41.6623 28.4753731,40.8373775 L29.3132617,27.4311594 C29.3647486,26.5416581 28.6557659,25.7940288 27.7663904,25.7940288 L21.7334916,25.7940288 C20.8441161,25.7940288 20.1351334,26.5416581 20.1866203,27.4311594 Z M29.9061787,49.5127222 C29.9061787,46.6639512 27.598712,44.3564845 24.749941,44.3564845 C21.90117,44.3564845 19.5937033,46.6639512 19.5937033,49.5127222 C19.5937033,52.3614932 21.90117,54.6689599 24.749941,54.6689599 C27.598712,54.6689599 29.9061787,52.3614932 29.9061787,49.5127222 Z" id="Shape"></path>
        </g>
    </g>
</svg>