<?xml version="1.0" encoding="UTF-8"?>
<svg viewBox="0 0 56.2998361 56.3001272" version="1.1" xmlns="http://www.w3.org/2000/svg" xmlns:xlink="http://www.w3.org/1999/xlink">
    <title>Venue Icon</title>
    <g id="Page-1" stroke="none" stroke-width="1" fill="none" fill-rule="evenodd">
        <g id="Venue-Icon" transform="translate(0.650000, 0.650127)" fill="#76DAE7" fill-rule="nonzero" stroke="#3C3C3B" stroke-width="1.3">
            <path d="M52.0566413,35.513677 L41.1210924,30.8236375 C39.1337878,29.9977794 36.8027318,30.5685106 35.4545885,32.2287142 L31.894626,36.5760776 C26.2324215,33.4941438 21.5166019,28.7783241 18.4335944,23.1171916 L22.7863292,19.551861 C24.4696298,18.1639689 25.0239271,15.8823261 24.1656257,13.8756862 L19.4863275,2.94014066 C18.5517575,0.781927403 16.1992191,-0.401431027 13.9218757,0.123968419 L3.77802715,2.47715264 C1.55439466,2.98418402 0,4.93066787 0,7.21016019 C0,33.5585976 21.4414069,55 47.7919915,55 C50.0725591,55 52.025488,53.4488323 52.5368172,51.2262735 L54.8786128,41.0781288 C55.3974622,38.7900442 54.2158216,36.4482453 52.0566413,35.513677 Z M49.1884759,50.4560605 C49.0407708,51.097261 48.4532812,51.5635797 47.7941388,51.5635797 C23.3341782,51.5635797 3.43964726,31.6690472 3.43964726,7.2090882 C3.43964726,6.5443629 3.89447242,5.9758839 4.55039069,5.82549393 L14.6920903,3.47188025 C14.7995122,3.44669997 14.9069341,3.43495071 15.0126365,3.43495071 C15.5748819,3.43495071 16.0986717,3.76731336 16.3285545,4.29765314 L21.01,15.2224591 C21.25879,15.8125058 21.0976572,16.4892623 20.6035176,16.8974641 L15.1787129,21.3447307 C14.5664085,21.8496132 14.3730488,22.7089882 14.7275414,23.4287161 C18.3132841,30.7129931 24.2999047,36.6953176 31.5820329,40.2832076 C32.2954206,40.639095 33.1643583,40.4476711 33.6703144,39.8299953 L38.1165074,34.4051906 C38.5142909,33.9150259 39.207914,33.7538931 39.7815464,33.9922616 L50.6956096,38.6715582 C51.3300438,38.9468792 51.6791649,39.6350244 51.5247984,40.3065193 L49.1884775,50.4560605 L49.1884759,50.4560605 Z" id="Shape"></path>
        </g>
    </g>
</svg>